<svg width="0" height="0" class="hidden">
  <symbol version="1.1" id="cart" xmlns="http://www.w3.org/2000/svg" xmlns:xlink="http://www.w3.org/1999/xlink" x="0px" y="0px" xml:space="preserve" viewBox="0 0 902.86 902.86">
    <g>
      <g>
        <path d="M671.5,577.83l110.48-432.61h120.87v-68H729.17L703.13,179.2L0,178.7l74.75,399.13L671.5,577.83L671.5,577.83
			L671.5,577.83z M685.77,247.19l-67.08,262.64H131.2L81.93,246.76L685.77,247.19z"></path>
        <path d="M578.42,825.64c59.96,0,108.74-48.78,108.74-108.74s-48.78-108.74-108.74-108.74h-409.7
			c-59.96,0-108.74,48.78-108.74,108.74s48.78,108.74,108.74,108.74s108.74-48.78,108.74-108.74c0-14.4-2.82-28.15-7.93-40.74H477.6
			c-5.11,12.59-7.93,26.34-7.93,40.74C469.67,776.86,518.46,825.64,578.42,825.64z M209.46,716.9c0,22.47-18.28,40.74-40.74,40.74
			s-40.74-18.28-40.74-40.74c0-22.47,18.28-40.74,40.74-40.74C191.18,676.16,209.46,694.43,209.46,716.9z M619.16,716.9
			c0,22.47-18.28,40.74-40.74,40.74s-40.74-18.28-40.74-40.74c0-22.47,18.28-40.74,40.74-40.74S619.16,694.43,619.16,716.9z"></path>
      </g>
    </g>
  </symbol>
  <symbol version="1.1" xmlns="http://www.w3.org/2000/svg" xmlns:xlink="http://www.w3.org/1999/xlink" x="0px" y="0px" xml:space="preserve" viewBox="0 0 966.43 137.33" id="tc_logo">
    <g id="Layer_1">
      <g>
        <g>
          <polygon points="120.74,32.11 36.04,32.11 41.79,42.03 74.21,42.03 74.21,72.94 78.39,80.46 82.81,72.76 
				82.81,42.03 114.98,42.03 			"></polygon>
          <polygon points="71.04,55.65 71.04,45.85 43.92,45.85 78.39,105.22 97.8,71.89 86.33,72.01 78.39,85.03 60.89,55.71 
							"></polygon>
          <polygon points="85.79,45.85 85.79,55.53 107.59,55.53 113.09,45.85 			"></polygon>
        </g>
        <g>
          <path d="M147.14,49.54h30.34v8.03h-10.05l-0.06,30.28h-10.3V57.57h-9.93V49.54z"></path>
          <path d="M192.8,87.91h-10.42V69.46l-0.06-0.06l0.06-0.06V49.6l25.01-0.06c1.51,0,2.72,0.35,3.62,1.04
				c0.9,0.7,1.51,1.84,1.84,3.43c0,2.62,0,4.69,0,6.22c0,1.53,0,2.73,0,3.59c0,0.86,0,1.48,0,1.87c0,0.39,0,0.73,0,1.01
				c-0.29,1.35-0.77,2.37-1.44,3.06c-0.67,0.7-1.56,1.14-2.67,1.35v0.18h-3.92l7.97,16.73h-10.73l-7.79-16.61v-6.56h7.6v-7.11h-9.44
				L192.8,87.91z"></path>
          <path d="M232.03,49.3h11.16l13.18,38.49h-21.58v-8.15h8.4l-5.58-17.29l-9.13,25.44h-10.42L232.03,49.3z"></path>
          <path d="M291.92,87.85h-10.36v-0.18h-0.18V57.63h-9.26L272,87.85h-10.36V49.6h30.34L291.92,87.85z"></path>
          <path d="M300.07,79.64h16.55l0.06-6.99h-14.16c-3.03,0-4.84-1.29-5.46-3.86c0-0.65,0.01-1.35,0.03-2.08
				c0.02-0.74,0.03-1.43,0.03-2.08h-0.06v-10.6c0.33-1.59,0.94-2.74,1.84-3.43c0.9-0.69,2.1-1.04,3.62-1.04h25.01
				c-0.61,1.8-1.16,3.36-1.66,4.69c-0.49,1.33-0.92,2.52-1.29,3.59v-0.06h-6.13v0.06h-10.42v6.8l14.1-0.06
				c1.51,0,2.72,0.35,3.62,1.04c0.9,0.7,1.51,1.84,1.84,3.43c0,0.08-0.01,0.17-0.03,0.28c-0.02,0.1-0.03,0.19-0.03,0.28h0.12v14.28
				c-0.61,2.57-2.43,3.86-5.46,3.86l-7.91,0.12v0.06l-17.22,0.12L300.07,79.64z"></path>
          <path d="M332.93,49.6h30.34l-3,8.21h-16.92v6.99h16.92v8.03h-16.92l-0.06,15.02h-10.36V49.6z"></path>
          <path d="M373.81,87.91c-3.02,0-4.84-1.29-5.46-3.86c0.04-5.35,0.06-10.48,0.06-15.39s-0.02-9.79-0.06-14.65
				c0.33-1.59,0.94-2.74,1.84-3.43c0.9-0.69,2.1-1.04,3.62-1.04h19.62c1.51,0,2.72,0.35,3.62,1.04c0.9,0.7,1.51,1.84,1.84,3.43
				c-0.04,4.86-0.06,9.75-0.06,14.65s0.02,10.03,0.06,15.39c-0.61,2.57-2.43,3.86-5.46,3.86H373.81z M379.33,79.52h8.58v-21.7h-8.58
				V79.52z"></path>
          <path d="M414.45,87.91h-10.42V69.46l-0.06-0.06l0.06-0.06V49.6l25.01-0.06c1.51,0,2.72,0.35,3.62,1.04
				c0.9,0.7,1.51,1.84,1.84,3.43c0,2.62,0,4.69,0,6.22c0,1.53,0,2.73,0,3.59c0,0.86,0,1.48,0,1.87c0,0.39,0,0.73,0,1.01
				c-0.29,1.35-0.77,2.37-1.44,3.06c-0.67,0.7-1.56,1.14-2.67,1.35v0.18h-3.92l7.97,16.73h-10.73l-7.79-16.61v-6.56h7.6v-7.11h-9.44
				L414.45,87.91z"></path>
          <path d="M469.86,87.85h-10.36v-0.18h-0.18V57.63h-9.26l-0.12,30.22h-10.36V49.6l50.08-0.06l0.12-0.12h0.06
				l-0.06,0.18l-0.12,38.25h-10.3l0.06-28.75h-0.06v-1.47h-9.44L469.86,87.85z"></path>
          <path d="M495.18,49.6h30.34l-3,8.21H505.6v6.99h16.92v8.03H505.6v6.74l19.92-0.06l-2.94,8.34h-27.4V49.6z"></path>
          <path d="M541.21,87.91h-10.42V69.46l-0.06-0.06l0.06-0.06V49.6l25.01-0.06c1.51,0,2.72,0.35,3.62,1.04
				c0.9,0.7,1.51,1.84,1.84,3.43c0,2.62,0,4.69,0,6.22c0,1.53,0,2.73,0,3.59c0,0.86,0,1.48,0,1.87c0,0.39,0,0.73,0,1.01
				c-0.29,1.35-0.77,2.37-1.44,3.06c-0.67,0.7-1.56,1.14-2.67,1.35v0.18h-3.92l7.97,16.73h-10.73l-7.79-16.61v-6.56h7.6v-7.11h-9.44
				L541.21,87.91z"></path>
          <path d="M630.59,49.6l-3,8.21h-16.92v21.76l19.92-0.06l-2.94,8.34h-24.46c-0.57-0.57-1.12-1.08-1.65-1.53
				c-0.53-0.45-0.96-1.12-1.29-2.02V52.61c0.33-0.9,0.76-1.54,1.29-1.93c0.53-0.39,1.08-0.75,1.65-1.07H630.59z"></path>
          <path d="M641.31,87.91c-3.02,0-4.84-1.29-5.46-3.86c0.04-5.35,0.06-10.48,0.06-15.39s-0.02-9.79-0.06-14.65
				c0.33-1.59,0.94-2.74,1.84-3.43c0.9-0.69,2.1-1.04,3.62-1.04h19.62c1.51,0,2.72,0.35,3.62,1.04c0.9,0.7,1.51,1.84,1.84,3.43
				c-0.04,4.86-0.06,9.75-0.06,14.65s0.02,10.03,0.06,15.39c-0.61,2.57-2.43,3.86-5.46,3.86H641.31z M646.83,79.52h8.58v-21.7h-8.58
				V79.52z"></path>
          <path d="M681.95,79.64h16.92l3,8.21h-30.34V49.6h10.36L681.95,79.64z"></path>
          <path d="M717.2,79.64h16.92l3,8.21h-30.34V49.6h10.36L717.2,79.64z"></path>
          <path d="M742.21,49.6h30.34l-3,8.21h-16.92v6.99h16.92v8.03h-16.92v6.74l19.92-0.06l-2.94,8.34h-27.4V49.6z"></path>
          <path d="M808.35,49.6l-3,8.21h-16.92v21.76l19.92-0.06l-2.94,8.34h-24.46c-0.57-0.57-1.12-1.08-1.65-1.53
				c-0.53-0.45-0.96-1.12-1.29-2.02V52.61c0.33-0.9,0.76-1.54,1.29-1.93c0.53-0.39,1.08-0.75,1.65-1.07H808.35z"></path>
          <path d="M813.37,49.54h30.34v8.03h-10.05l-0.06,30.28h-10.3V57.57h-9.93V49.54z"></path>
          <path d="M859.04,87.85h-10.3V49.6h10.36L859.04,87.85z"></path>
          <path d="M869.83,87.91c-3.02,0-4.84-1.29-5.46-3.86c0.04-5.35,0.06-10.48,0.06-15.39s-0.02-9.79-0.06-14.65
				c0.33-1.59,0.94-2.74,1.84-3.43c0.9-0.69,2.1-1.04,3.62-1.04h19.62c1.51,0,2.72,0.35,3.62,1.04c0.9,0.7,1.51,1.84,1.84,3.43
				c-0.04,4.86-0.06,9.75-0.06,14.65s0.02,10.03,0.06,15.39c-0.61,2.57-2.43,3.86-5.46,3.86H869.83z M875.34,79.52h8.58v-21.7h-8.58
				V79.52z"></path>
          <path d="M930.33,87.85h-10.36v-0.18h-0.18V57.63h-9.26l-0.12,30.22h-10.36V49.6h30.34L930.33,87.85z"></path>
        </g>
      </g>
    </g>
    <g id="Layer_2"></g>
  </symbol>
</svg>