<?xml version="1.0" encoding="utf-8"?>
<!-- Generator: Adobe Illustrator 26.2.1, SVG Export Plug-In . SVG Version: 6.00 Build 0)  -->
<svg version="1.1" id="Capa_1" xmlns="http://www.w3.org/2000/svg" xmlns:xlink="http://www.w3.org/1999/xlink" x="0px" y="0px"
	 viewBox="0 0 902.86 902.86" style="enable-background:new 0 0 902.86 902.86;" xml:space="preserve">
<style type="text/css">
	.st0{fill:#FFFFFF;}
</style>
<g>
	<g>
		<path class="st0" d="M671.5,577.83l110.48-432.61h120.87v-68H729.17L703.13,179.2L0,178.7l74.75,399.13L671.5,577.83L671.5,577.83
			L671.5,577.83z M685.77,247.19l-67.08,262.64H131.2L81.93,246.76L685.77,247.19z"/>
		<path class="st0" d="M578.42,825.64c59.96,0,108.74-48.78,108.74-108.74s-48.78-108.74-108.74-108.74h-409.7
			c-59.96,0-108.74,48.78-108.74,108.74s48.78,108.74,108.74,108.74s108.74-48.78,108.74-108.74c0-14.4-2.82-28.15-7.93-40.74H477.6
			c-5.11,12.59-7.93,26.34-7.93,40.74C469.67,776.86,518.46,825.64,578.42,825.64z M209.46,716.9c0,22.47-18.28,40.74-40.74,40.74
			s-40.74-18.28-40.74-40.74c0-22.47,18.28-40.74,40.74-40.74C191.18,676.16,209.46,694.43,209.46,716.9z M619.16,716.9
			c0,22.47-18.28,40.74-40.74,40.74s-40.74-18.28-40.74-40.74c0-22.47,18.28-40.74,40.74-40.74S619.16,694.43,619.16,716.9z"/>
	</g>
</g>
</svg>
